<svg width="27" height="12" viewBox="0 0 27 12" fill="none" xmlns="http://www.w3.org/2000/svg">
<path d="M24 7.00012C25.1046 7.00012 26 7.89555 26 9.00012C26 10.1047 25.1046 11.0001 24 11.0001L2 11.0001C0.895429 11.0001 -1.35705e-07 10.1047 -8.74228e-08 9.00012C-3.91405e-08 7.89555 0.895432 7.00012 2 7.00012L24 7.00012Z" fill="#5E6B7E"/>
<path d="M25.0711 7.24265C25.8522 8.0237 25.8522 9.29003 25.0711 10.0711C24.2901 10.8521 23.0238 10.8521 22.2427 10.0711L16.4143 4.24265C15.6332 3.4616 15.6332 2.19527 16.4143 1.41422C17.1953 0.633172 18.4617 0.633172 19.2427 1.41422L25.0711 7.24265Z" fill="#5E6B7E"/>
</svg>
