<svg width="220" height="102" viewBox="0 0 220 102" fill="none" xmlns="http://www.w3.org/2000/svg">
<path fill-rule="evenodd" clip-rule="evenodd" d="M127.904 16.8846L109.32 7.86749L90.7363 16.8618L91.8921 22.2045L86.9969 24.662L78.0685 29.1253L87.0879 71.8214L109.298 90.735L131.507 71.8214L140.572 29.1703L131.644 24.707L126.749 22.25L127.904 16.9073V16.8846ZM82.646 12.9622L109.32 0.0227549V0L135.995 12.9622L134.816 18.3722L148.641 25.2707L137.99 75.5859L109.32 100L80.6512 75.5859L70 25.2707L83.8245 18.3722L82.646 12.9622ZM121.149 25.5817C125.725 28.6621 128.251 33.26 128.251 38.3111V38.6368C128.259 41.3176 128.269 45.385 124.313 51.0406C121.468 55.072 116.322 58.8094 109.72 62.3431L109.766 82.5243L101.276 75.2987L100.66 66.7144C99.5225 67.2126 98.3611 67.7109 97.1778 68.2091L95.2427 58.8094C96.7455 58.0619 98.3383 57.337 99.9549 56.5899L97.6102 23.4299C106.397 19.9645 114.297 20.961 121.149 25.5817ZM109.72 51.5838C112.43 49.8853 114.752 47.8919 116.459 45.5818C118.03 43.4978 118.804 40.9156 118.667 38.2884C118.462 36.3405 117.393 34.5509 115.753 33.4411C114.091 32.3313 111.974 31.5837 109.652 31.2443L109.72 51.5838Z" fill="#D9D9D9"/>
</svg>
