<svg width="263" height="75" viewBox="0 0 263 75" fill="none" xmlns="http://www.w3.org/2000/svg">
<path d="M98.057 31V12.894H105.005C107.092 12.894 108.747 13.3977 109.97 14.405C111.193 15.4034 111.805 16.883 111.805 18.8439C111.805 20.7957 111.193 22.2798 109.97 23.2962C108.747 24.3036 107.092 24.8072 105.005 24.8072H102.401V31H98.057ZM102.401 21.0295H105.005C105.788 21.0295 106.377 20.8137 106.773 20.3819C107.177 19.9412 107.38 19.4285 107.38 18.8439C107.38 18.2502 107.177 17.733 106.773 17.2923C106.377 16.8516 105.788 16.6312 105.005 16.6312H102.401V21.0295ZM115.957 31V12.894H120.275V31H115.957ZM126.132 12.894H130.638L137.911 23.8493H137.614V12.894H141.931V31H137.762L129.735 18.9653H130.45V31H126.132V12.894ZM158.376 12.894H164.272L151.954 25.4144V19.6264L158.376 12.894ZM155.503 20.2065L164.785 31H159.267L152.561 23.0263L155.503 20.2065ZM147.853 12.894H152.197V31H147.853V12.894ZM176.797 12.894H182.976L186.983 22.5541H186.646L190.653 12.894H196.589V31H192.245V18.1153H192.839L188.184 29.3135H185.391L180.764 18.1423H181.114V31H176.797V12.894ZM209.955 31.4317C208.237 31.4317 206.735 31.072 205.449 30.3524C204.172 29.6238 203.178 28.5535 202.467 27.1413C201.756 25.7202 201.401 23.9708 201.401 21.893C201.401 19.7613 201.756 18.0029 202.467 16.6177C203.178 15.2236 204.172 14.1892 205.449 13.5146C206.735 12.831 208.237 12.4892 209.955 12.4892C211.691 12.4892 213.202 12.8445 214.488 13.5551C215.783 14.2656 216.786 15.318 217.497 16.7122C218.208 18.1063 218.563 19.8333 218.563 21.893C218.563 24.0067 218.208 25.7742 217.497 27.1953C216.786 28.6074 215.783 29.6688 214.488 30.3794C213.202 31.081 211.691 31.4317 209.955 31.4317ZM209.955 27.5596C211.214 27.5596 212.222 27.0649 212.977 26.0755C213.733 25.0771 214.111 23.6739 214.111 21.866C214.111 20.1661 213.733 18.8259 212.977 17.8455C212.222 16.8561 211.214 16.3614 209.955 16.3614C208.732 16.3614 207.742 16.8561 206.987 17.8455C206.231 18.8259 205.854 20.1751 205.854 21.893C205.854 23.6829 206.231 25.0771 206.987 26.0755C207.742 27.0649 208.732 27.5596 209.955 27.5596ZM230.778 31.4317C229.06 31.4317 227.558 31.072 226.271 30.3524C224.994 29.6238 224 28.5535 223.29 27.1413C222.579 25.7202 222.224 23.9708 222.224 21.893C222.224 19.7613 222.579 18.0029 223.29 16.6177C224 15.2236 224.994 14.1892 226.271 13.5146C227.558 12.831 229.06 12.4892 230.778 12.4892C232.514 12.4892 234.025 12.8445 235.311 13.5551C236.606 14.2656 237.609 15.318 238.32 16.7122C239.03 18.1063 239.386 19.8333 239.386 21.893C239.386 24.0067 239.03 25.7742 238.32 27.1953C237.609 28.6074 236.606 29.6688 235.311 30.3794C234.025 31.081 232.514 31.4317 230.778 31.4317ZM230.778 27.5596C232.037 27.5596 233.044 27.0649 233.8 26.0755C234.555 25.0771 234.933 23.6739 234.933 21.866C234.933 20.1661 234.555 18.8259 233.8 17.8455C233.044 16.8561 232.037 16.3614 230.778 16.3614C229.555 16.3614 228.565 16.8561 227.81 17.8455C227.054 18.8259 226.676 20.1751 226.676 21.893C226.676 23.6829 227.054 25.0771 227.81 26.0755C228.565 27.0649 229.555 27.5596 230.778 27.5596ZM244.086 12.894H248.592L255.864 23.8493H255.567V12.894H259.884V31H255.716L247.688 18.9653H248.403V31H244.086V12.894ZM104.978 62.4317C103.683 62.4317 102.482 62.2159 101.376 61.7841C100.27 61.3434 99.3702 60.6598 98.6776 59.7334C97.985 58.7979 97.6027 57.5837 97.5308 56.0906H101.794C101.794 56.6392 101.934 57.0935 102.212 57.4533C102.491 57.813 102.869 58.0784 103.346 58.2493C103.831 58.4202 104.367 58.5056 104.951 58.5056C105.419 58.5056 105.855 58.4651 106.26 58.3842C106.674 58.3032 107.007 58.1593 107.258 57.9525C107.51 57.7456 107.636 57.4622 107.636 57.1025C107.636 56.6617 107.501 56.3334 107.231 56.1176C106.971 55.9017 106.494 55.6543 105.801 55.3755L101.862 53.662C100.566 53.1044 99.559 52.4478 98.8395 51.6922C98.1199 50.9367 97.7601 49.9068 97.7601 48.6026C97.7601 47.0735 98.3808 45.8413 99.622 44.9059C100.872 43.9614 102.581 43.4892 104.749 43.4892C106.953 43.4892 108.644 44.0109 109.822 45.0543C111 46.0886 111.661 47.5682 111.805 49.4931H107.569C107.461 48.8994 107.195 48.4002 106.773 47.9955C106.359 47.5907 105.684 47.3883 104.749 47.3883C104.074 47.3883 103.53 47.5143 103.116 47.7661C102.703 48.009 102.496 48.3148 102.496 48.6836C102.496 49.0254 102.626 49.2952 102.887 49.4931C103.157 49.691 103.557 49.9068 104.088 50.1407L108.257 51.9081C109.642 52.5107 110.672 53.2168 111.346 54.0263C112.03 54.8358 112.372 55.8072 112.372 56.9406C112.372 58.1548 112.079 59.1712 111.495 59.9897C110.919 60.7992 110.078 61.4109 108.972 61.8246C107.875 62.2294 106.543 62.4317 104.978 62.4317ZM115.525 47.6312V43.894H130.434V47.6312H124.187L125.159 46.6598V62H120.841V46.6598L121.813 47.6312H115.525ZM134.075 43.894H138.393V54.8763C138.393 56.1625 138.721 57.089 139.378 57.6556C140.034 58.2223 140.857 58.5056 141.847 58.5056C142.854 58.5056 143.686 58.2223 144.343 57.6556C145.008 57.089 145.341 56.1625 145.341 54.8763V43.894H149.645V54.8763C149.645 56.4054 149.344 57.7366 148.741 58.8699C148.138 60.0032 147.257 60.8802 146.097 61.5008C144.936 62.1214 143.52 62.4317 141.847 62.4317C140.174 62.4317 138.757 62.1214 137.597 61.5008C136.446 60.8802 135.569 60.0032 134.966 58.8699C134.372 57.7366 134.075 56.4054 134.075 54.8763V43.894ZM155.231 43.894H161.64C163.502 43.894 165.143 44.2627 166.564 45.0003C167.985 45.7378 169.096 46.7857 169.897 48.1439C170.706 49.4931 171.111 51.1031 171.111 52.974C171.111 54.8178 170.706 56.4189 169.897 57.7771C169.096 59.1262 167.985 60.1696 166.564 60.9072C165.143 61.6357 163.502 62 161.64 62H155.231V43.894ZM159.548 47.8606V58.0604H161.64C162.62 58.0604 163.466 57.84 164.176 57.3993C164.896 56.9496 165.449 56.3424 165.836 55.5779C166.231 54.8134 166.429 53.9454 166.429 52.974C166.429 51.9666 166.231 51.0806 165.836 50.3161C165.449 49.5515 164.896 48.9534 164.176 48.5217C163.466 48.0809 162.62 47.8606 161.64 47.8606H159.548ZM175.869 62V43.894H180.187V62H175.869ZM193.559 62.4317C191.841 62.4317 190.339 62.072 189.053 61.3524C187.776 60.6238 186.782 59.5535 186.071 58.1413C185.361 56.7202 185.005 54.9708 185.005 52.893C185.005 50.7613 185.361 49.0029 186.071 47.6177C186.782 46.2236 187.776 45.1892 189.053 44.5146C190.339 43.831 191.841 43.4892 193.559 43.4892C195.295 43.4892 196.806 43.8445 198.093 44.5551C199.388 45.2656 200.391 46.318 201.101 47.7122C201.812 49.1063 202.167 50.8333 202.167 52.893C202.167 55.0067 201.812 56.7742 201.101 58.1953C200.391 59.6074 199.388 60.6688 198.093 61.3794C196.806 62.081 195.295 62.4317 193.559 62.4317ZM193.559 58.5596C194.819 58.5596 195.826 58.0649 196.581 57.0755C197.337 56.0771 197.715 54.6739 197.715 52.866C197.715 51.1661 197.337 49.8259 196.581 48.8455C195.826 47.8561 194.819 47.3614 193.559 47.3614C192.336 47.3614 191.347 47.8561 190.591 48.8455C189.836 49.8259 189.458 51.1751 189.458 52.893C189.458 54.6829 189.836 56.0771 190.591 57.0755C191.347 58.0649 192.336 58.5596 193.559 58.5596ZM213.761 62.4317C212.466 62.4317 211.265 62.2159 210.159 61.7841C209.053 61.3434 208.153 60.6598 207.461 59.7334C206.768 58.7979 206.386 57.5837 206.314 56.0906H210.577C210.577 56.6392 210.717 57.0935 210.996 57.4533C211.274 57.813 211.652 58.0784 212.129 58.2493C212.615 58.4202 213.15 58.5056 213.734 58.5056C214.202 58.5056 214.638 58.4651 215.043 58.3842C215.457 58.3032 215.79 58.1593 216.042 57.9525C216.293 57.7456 216.419 57.4622 216.419 57.1025C216.419 56.6617 216.284 56.3334 216.015 56.1176C215.754 55.9017 215.277 55.6543 214.584 55.3755L210.645 53.662C209.35 53.1044 208.342 52.4478 207.623 51.6922C206.903 50.9367 206.543 49.9068 206.543 48.6026C206.543 47.0735 207.164 45.8413 208.405 44.9059C209.655 43.9614 211.364 43.4892 213.532 43.4892C215.736 43.4892 217.427 44.0109 218.605 45.0543C219.783 46.0886 220.444 47.5682 220.588 49.4931H216.352C216.244 48.8994 215.979 48.4002 215.556 47.9955C215.142 47.5907 214.467 47.3883 213.532 47.3883C212.857 47.3883 212.313 47.5143 211.9 47.7661C211.486 48.009 211.279 48.3148 211.279 48.6836C211.279 49.0254 211.409 49.2952 211.67 49.4931C211.94 49.691 212.34 49.9068 212.871 50.1407L217.04 51.9081C218.425 52.5107 219.455 53.2168 220.13 54.0263C220.813 54.8358 221.155 55.8072 221.155 56.9406C221.155 58.1548 220.863 59.1712 220.278 59.9897C219.702 60.7992 218.861 61.4109 217.755 61.8246C216.658 62.2294 215.326 62.4317 213.761 62.4317Z" fill="#DDDDDD"/>
<path d="M71.9813 37.5C71.9813 56.597 56.5199 72.0721 37.4546 72.0721C18.3894 72.0721 2.92791 56.597 2.92791 37.5C2.92791 18.403 18.3894 2.92791 37.4546 2.92791C56.5199 2.92791 71.9813 18.403 71.9813 37.5Z" stroke="#F231AF" stroke-width="5.85583"/>
<mask id="path-3-inside-1_3395_70538" fill="white">
<path fill-rule="evenodd" clip-rule="evenodd" d="M56.1821 5.01691C44.9869 11.5009 37.4549 23.6198 37.4549 37.5C37.4549 51.3802 44.9869 63.4991 56.1821 69.9831C50.673 73.1738 44.2768 75 37.4546 75C16.769 75 0 58.2107 0 37.5C0 16.7893 16.769 0 37.4546 0C44.2768 0 50.673 1.82617 56.1821 5.01691Z"/>
</mask>
<path d="M56.1821 5.01691L59.1169 10.0842L67.8661 5.01691L59.1169 -0.0503831L56.1821 5.01691ZM56.1821 69.9831L59.1169 75.0504L67.8661 69.9831L59.1169 64.9158L56.1821 69.9831ZM43.3107 37.5C43.3107 25.7911 49.6574 15.5629 59.1169 10.0842L53.2472 -0.0503831C40.3164 7.43882 31.599 21.4484 31.599 37.5H43.3107ZM59.1169 64.9158C49.6574 59.4371 43.3107 49.2089 43.3107 37.5H31.599C31.599 53.5516 40.3164 67.5612 53.2472 75.0504L59.1169 64.9158ZM53.2472 64.9158C48.6057 67.604 43.2185 69.1442 37.4546 69.1442V80.8558C45.3351 80.8558 52.7402 78.7436 59.1169 75.0504L53.2472 64.9158ZM37.4546 69.1442C20.0098 69.1442 5.85583 54.9833 5.85583 37.5H-5.85583C-5.85583 61.4381 13.5282 80.8558 37.4546 80.8558V69.1442ZM5.85583 37.5C5.85583 20.0167 20.0098 5.85583 37.4546 5.85583V-5.85583C13.5282 -5.85583 -5.85583 13.5619 -5.85583 37.5H5.85583ZM37.4546 5.85583C43.2185 5.85583 48.6057 7.39596 53.2472 10.0842L59.1169 -0.0503831C52.7402 -3.74361 45.3351 -5.85583 37.4546 -5.85583V5.85583Z" fill="#F231AF" mask="url(#path-3-inside-1_3395_70538)"/>
<line x1="33.4746" y1="38.5565" x2="72.802" y2="38.5565" stroke="#F231AF" stroke-width="5.85583"/>
<line x1="38.625" y1="23.5565" x2="67.4182" y2="23.5565" stroke="#F231AF" stroke-width="5.85583"/>
<line x1="38.625" y1="52.8533" x2="67.4182" y2="52.8533" stroke="#F231AF" stroke-width="5.85583"/>
</svg>
