<svg width="220" height="100" viewBox="0 0 220 100" fill="none" xmlns="http://www.w3.org/2000/svg">
<path fill-rule="evenodd" clip-rule="evenodd" d="M126.29 18.1401C125.669 17.827 124.364 17.3887 122.87 17.3887C118.953 17.3887 116.651 19.8325 116.092 24.155L113.045 47.3986H119.574L117.646 53.6014H112.11L109.125 76.2815C108.069 84.5506 102.969 89 95.6309 89C93.7645 89 91.0901 88.6243 89.9092 88.0607C90.3396 87.0863 90.7282 86.0917 91.111 85.1122C91.3931 84.3903 91.6719 83.6766 91.962 82.9851C92.8322 83.3609 94.0753 83.6739 95.5066 83.6739C99.3619 83.6739 101.725 81.2927 102.285 76.845L105.332 53.6014H98.7403L100.669 47.3986H106.142L109.127 24.7185C110.184 16.7625 114.973 12 122.559 12C124.923 12 127.411 12.5636 128.468 13.1271C127.782 14.757 127.036 16.5103 126.29 18.1401ZM80.0853 26.4111V32.4869H85.9296V62.436L59.7486 26.4111H47V32.4869H52.7838V68.5761H47V74.6535H66.0297V68.5761H60.1837V39.067L86.2421 74.6535H93.3311V32.4869H99.2393V26.4111H80.0853ZM152.1 26.4111V32.1112H157.323L147.932 44.8923L138.417 32.1112H143.579V26.4111H124.55V32.4869H129.961L143.517 50.0305L129.089 68.5761H123.493V74.6535H142.771V68.8892H137.547L147.932 55.0435L158.443 68.8892H152.784V74.6535H172V68.5761H166.589L152.286 50.0305L165.967 32.4869H171.254V26.4111H152.1Z" fill="#D9D9D9"/>
</svg>
