<svg width="18" height="15" viewBox="0 0 18 15" fill="none" xmlns="http://www.w3.org/2000/svg">
<path d="M17.108 0.295906C17.0942 0.232642 17.0639 0.174166 17.0201 0.126449C16.9763 0.078732 16.9207 0.0434826 16.8589 0.0242993C16.6338 -0.0200953 16.4009 -0.00344822 16.1844 0.0725135C16.1844 0.0725135 1.16457 5.47091 0.306891 6.06876C0.121534 6.19734 0.0599271 6.2718 0.0293914 6.36019C-0.119001 6.78555 0.342784 6.97305 0.342784 6.97305L4.21386 8.23466C4.27924 8.24596 4.34636 8.24193 4.40993 8.22287C5.29064 7.6668 13.2701 2.62787 13.7314 2.45859C13.8037 2.43662 13.8572 2.45859 13.8455 2.51216C13.6569 3.15823 6.766 9.28198 6.72796 9.31948C6.70947 9.33465 6.69494 9.35408 6.68561 9.3761C6.67628 9.39812 6.67243 9.42207 6.67439 9.44591L6.31439 13.2232C6.31439 13.2232 6.16332 14.4018 7.33975 13.2232C8.17386 12.388 8.97421 11.697 9.37546 11.3611C10.7067 12.2798 12.1392 13.2961 12.7569 13.8254C12.8605 13.926 12.9834 14.0048 13.1181 14.0569C13.2529 14.109 13.3968 14.1334 13.5412 14.1286C14.1305 14.1061 14.2912 13.4616 14.2912 13.4616C14.2912 13.4616 17.0276 2.45001 17.1198 0.974121C17.1283 0.829478 17.1406 0.736799 17.1417 0.637692C17.1466 0.522743 17.1352 0.40768 17.108 0.295906Z" fill="#808080"/>
</svg>
