<svg width="17" height="17" viewBox="0 0 17 17" fill="none" xmlns="http://www.w3.org/2000/svg">
<path d="M8.143 10.857C9.64206 10.857 10.8573 9.64181 10.8573 8.14275C10.8573 6.64369 9.64206 5.42847 8.143 5.42847C6.64394 5.42847 5.42871 6.64369 5.42871 8.14275C5.42871 9.64181 6.64394 10.857 8.143 10.857Z" fill="#808080"/>
<path d="M11.535 0H4.74932C2.13071 0 0 2.13139 0 4.75068V11.5364C0 14.155 2.13139 16.2857 4.75068 16.2857H11.5364C14.155 16.2857 16.2857 14.1543 16.2857 11.535V4.74932C16.2857 2.13071 14.1543 0 11.535 0ZM8.14286 12.2143C5.89746 12.2143 4.07143 10.3882 4.07143 8.14286C4.07143 5.89746 5.89746 4.07143 8.14286 4.07143C10.3882 4.07143 12.2143 5.89746 12.2143 8.14286C12.2143 10.3882 10.3882 12.2143 8.14286 12.2143ZM12.8929 4.07143C12.5183 4.07143 12.2143 3.76743 12.2143 3.39286C12.2143 3.01829 12.5183 2.71429 12.8929 2.71429C13.2674 2.71429 13.5714 3.01829 13.5714 3.39286C13.5714 3.76743 13.2674 4.07143 12.8929 4.07143Z" fill="#808080"/>
</svg>
