<svg width="18" height="14" viewBox="0 0 18 14" fill="none" xmlns="http://www.w3.org/2000/svg">
<path d="M17.1964 1.66071C16.5536 1.92857 15.9107 2.14286 15.1607 2.19643C15.9107 1.76786 16.4464 1.07143 16.7143 0.267857C16.0179 0.696429 15.2679 0.964286 14.4643 1.125C13.8214 0.428571 12.9107 0 11.9464 0C10.0179 0 8.41072 1.55357 8.41072 3.53571C8.41072 3.80357 8.46429 4.07143 8.51786 4.33929C5.57143 4.17857 3 2.78571 1.23214 0.642857C0.910714 1.17857 0.75 1.76786 0.75 2.41071C0.75 3.64286 1.39286 4.71429 2.30357 5.35714C1.71429 5.35714 1.17857 5.19643 0.696429 4.92857V4.98214C0.696429 6.69643 1.92857 8.08929 3.53571 8.41071C3.21429 8.46429 2.94643 8.51786 2.625 8.51786C2.41071 8.51786 2.19643 8.51786 1.98214 8.46428C2.41071 9.85714 3.75 10.875 5.25 10.9286C4.07143 11.8929 2.51786 12.4286 0.857143 12.4286C0.589286 12.4286 0.267857 12.4286 0 12.375C1.60714 13.3393 3.48214 13.9286 5.46429 13.9286C11.9464 13.9286 15.4821 8.57143 15.4821 3.91071C15.4821 3.75 15.4821 3.58929 15.4821 3.48214C16.125 2.94643 16.7143 2.35714 17.1964 1.66071Z" fill="#808080"/>
</svg>
